<svg width="82" height="48" viewBox="0 0 82 48" fill="none" xmlns="http://www.w3.org/2000/svg">
<g opacity="0.03">
<path d="M62.0873 15.2736C62.522 15.1382 62.7605 14.9813 62.9859 14.768C63.1803 14.5792 63.3639 14.3256 63.5435 13.9631C63.8601 13.3351 64.1222 12.3822 64.3586 11.2579C64.7308 9.57037 65.0329 7.51575 65.9907 5.48658C66.4732 4.47617 67.1464 3.46883 68.0898 2.61426C69.0294 1.75698 70.228 1.07885 71.632 0.660097C72.8462 0.295469 74.1254 0.983826 74.49 2.19798C74.8547 3.41214 74.1663 4.69139 72.9522 5.05602C72.237 5.2727 71.742 5.5488 71.3441 5.86765C70.9977 6.14709 70.7198 6.46636 70.4688 6.85612C70.0328 7.53337 69.7002 8.44606 69.4325 9.52042C69.0164 11.132 68.7869 13.0421 68.1047 14.9483C67.7558 15.8994 67.2709 16.8731 66.496 17.7365C65.7271 18.601 64.6545 19.3027 63.4074 19.6695C62.1941 20.0339 60.9137 19.3449 60.5494 18.1316C60.1847 16.9175 60.874 15.638 62.0873 15.2736Z" fill="white"/>
<path d="M36.5678 22.9355C37.0016 22.8004 37.241 22.6433 37.4664 22.4299C37.6599 22.2414 37.8444 21.9876 38.024 21.625C38.3406 20.997 38.6021 20.0454 38.8394 18.9207C39.2107 17.2335 39.5131 15.1797 40.4708 13.1505C40.9533 12.1401 41.6256 11.1331 42.5688 10.2776C43.5087 9.42124 44.7073 8.74304 46.1112 8.32428C47.3254 7.95965 48.6047 8.64801 48.9693 9.86217C49.3339 11.0763 48.6456 12.3556 47.4314 12.7202C46.7163 12.9369 46.2213 13.2131 45.824 13.5308C45.4778 13.8111 45.199 14.1306 44.9489 14.5201C44.5127 15.1965 44.1801 16.1091 43.9123 17.1835C43.4963 18.795 43.2676 20.705 42.5843 22.6105C42.2363 23.5614 41.7505 24.5353 40.9756 25.3987C40.2076 26.2629 39.135 26.9646 37.8879 27.3315C36.6738 27.6961 35.3942 27.0069 35.0299 25.7936C34.6653 24.5794 35.3536 23.3002 36.5678 22.9355Z" fill="white"/>
<path d="M63.458 19.6524C62.3759 19.9813 61.2646 20.0342 60.2572 19.8393C59.3744 19.6731 58.5841 19.3363 57.8899 18.9303C56.6728 18.2157 55.7117 17.3072 54.8142 16.4313C53.4828 15.1097 52.2726 13.8504 51.1257 13.175C50.5531 12.8323 50.0189 12.6237 49.4538 12.5356C48.8877 12.4507 48.2655 12.4726 47.4418 12.7171C46.2277 13.0817 44.9484 12.3934 44.5838 11.1792C44.2191 9.96508 44.9075 8.68582 46.1217 8.3212C47.3441 7.95217 48.5422 7.83103 49.6624 7.93841C50.6427 8.03028 51.5537 8.29343 52.369 8.65624C53.8002 9.29514 54.9423 10.2097 55.9371 11.1158C57.4161 12.4821 58.6334 13.861 59.6675 14.6105C60.1805 14.9913 60.6143 15.207 60.9714 15.2982C61.3341 15.3857 61.6363 15.3995 62.1378 15.2565C63.352 14.8919 64.6312 15.5803 64.9959 16.7944C65.3602 18.0077 64.6721 19.2878 63.458 19.6524Z" fill="white"/>
<path d="M37.8748 27.3355C36.7927 27.6643 35.6812 27.7163 34.6746 27.5211C33.7927 27.3546 33.0024 27.0178 32.3074 26.6122C31.0911 25.8972 30.1301 24.9888 29.2328 24.1138C27.9011 22.7913 26.6912 21.5329 25.5443 20.8575C24.9717 20.5148 24.4384 20.306 23.8741 20.2176C23.3072 20.1329 22.6859 20.1546 21.8631 20.3988L21.8622 20.3991L21.2039 18.2073L22.2001 20.2669C22.0469 20.3407 21.9237 20.3806 21.8622 20.3991L21.2039 18.2073L22.2001 20.2669C21.0594 20.8185 19.6872 20.3411 19.1348 19.2006C18.583 18.0589 19.0613 16.6865 20.202 16.135C20.3553 16.0611 20.4796 16.0219 20.542 16.0031L20.5429 16.0029C21.7644 15.6341 22.9626 15.513 24.0827 15.6204C25.063 15.7122 25.9731 15.9756 26.7885 16.3385C28.2185 16.9767 29.3606 17.8913 30.3554 18.7974C31.8344 20.1638 33.0517 21.5426 34.086 22.293C34.5988 22.6729 35.0327 22.8886 35.39 22.9806C35.7525 23.0673 36.0549 23.0819 36.5564 22.939C37.7706 22.5744 39.0492 23.2639 39.4136 24.4771C39.7782 25.6913 39.089 26.9708 37.8748 27.3355Z" fill="white"/>
<path d="M46.3463 35.6414C47.578 35.2715 48.4538 34.5427 49.0549 33.6337C49.6608 32.7214 50.0127 31.64 50.2917 30.5038C50.8417 28.2309 51.1222 25.715 52.2326 23.8336C52.9745 22.5795 54.0429 21.5887 55.877 21.0321L55.613 20.153C55.6103 20.1537 55.6068 20.1548 55.6033 20.1559C54.0779 20.614 52.9611 21.3921 52.1545 22.3542C51.3446 23.3182 50.8433 24.4512 50.4811 25.6229C49.7635 27.9663 49.5635 30.4953 48.7458 32.2917C48.1964 33.4909 47.4473 34.3446 46.0682 34.7665L46.3322 35.6456C46.3366 35.6443 46.3419 35.6427 46.3463 35.6414Z" fill="white"/>
<path d="M20.8268 43.3035C22.0577 42.9338 22.9343 42.2047 23.5345 41.296C24.1413 40.3834 24.4924 39.3023 24.7722 38.1659C25.3225 35.8939 25.6033 33.3788 26.7128 31.4977C27.4547 30.2436 28.523 29.2528 30.3563 28.6964L30.0922 27.8173C30.0887 27.8183 30.0852 27.8194 30.0817 27.8204C28.5572 28.2783 27.4404 29.0565 26.6346 30.0183C25.8245 30.9814 25.3235 32.1152 24.9613 33.287C24.2442 35.6292 24.0434 38.1585 23.2266 39.9546C22.6769 41.153 21.9278 42.0067 20.5487 42.4285L20.8127 43.3077C20.8171 43.3064 20.8224 43.3048 20.8268 43.3035Z" fill="white"/>
<path d="M46.3609 35.6352C46.3679 35.6331 46.3758 35.6307 46.3828 35.6286L46.1188 34.7494C45.0768 35.0585 44.2094 34.9596 43.3598 34.6041C42.5126 34.2471 41.6939 33.6112 40.8697 32.8456C39.2136 31.3205 37.5636 29.2923 35.3561 28.2003C33.8898 27.4732 32.1538 27.1981 30.1237 27.8077C30.1167 27.8098 30.1097 27.8119 30.1027 27.8141L30.3667 28.6932C31.7449 28.2813 32.8967 28.3187 33.9406 28.6254C34.9832 28.9343 35.9233 29.5271 36.8164 30.2605C38.6076 31.7248 40.1599 33.744 42.0302 34.9354C43.2668 35.7276 44.7159 36.1292 46.3609 35.6352Z" fill="white"/>
<path d="M20.7997 43.3116L20.6686 42.8717L20.5366 42.4321C19.4955 42.741 18.6278 42.6411 17.7782 42.2857C16.9313 41.9295 16.1123 41.2927 15.2881 40.5271C13.6331 39.0027 11.9823 36.9748 9.77538 35.8817C8.30935 35.1555 6.57421 34.88 4.54505 35.4894L4.52307 35.496L4.45346 35.5227L4.8541 36.3493L4.65694 35.9418L4.7871 36.3752L4.78799 36.3749C6.16532 35.9632 7.31716 36.0007 8.36014 36.3076C9.4025 36.6157 10.3416 37.2087 11.235 37.943C13.0268 39.4062 14.5783 41.4256 16.4486 42.617C17.6853 43.4092 19.1346 43.8117 20.7787 43.3179C20.7857 43.3158 20.7936 43.3134 20.7997 43.3116Z" fill="white"/>
</g>
</svg>
