<svg width="210" height="184" viewBox="0 0 210 184" fill="none" xmlns="http://www.w3.org/2000/svg">
<g filter="url(#filter0_f_21_7)">
<path fill-rule="evenodd" clip-rule="evenodd" d="M85.6229 76.8726L85.7371 77.3001L96.0819 116.023L84.3428 127.745L43.9248 168.126L29.1774 112.93L14.4217 57.7276L69.5813 72.563L85.6229 76.8726ZM84.7761 73.7049L70.3171 69.8214L10.4073 53.7048L26.436 113.663L42.4532 173.615L86.3485 129.757L96.9288 119.193L101.118 134.874C101.774 137.326 103.689 139.241 106.138 139.9C108.59 140.559 111.206 139.858 113.002 138.065L155.158 95.9451L197.323 53.8481C199.119 52.0527 199.821 49.439 199.167 46.9872C198.511 44.5355 196.596 42.6208 194.147 41.9617L136.587 26.5012L79.0524 11.0267C76.6035 10.3676 73.9841 11.0664 72.1887 12.8591C70.3932 14.6517 69.6915 17.2682 70.3449 19.7199L84.7761 73.7049ZM111.666 119.318L99.4617 73.6324L87.2486 27.9417L132.9 40.2202L178.579 52.4873L145.121 85.8968L111.666 119.318ZM130.255 85.9182L108.584 107.558L107.738 104.387L124.767 87.3841L101.528 81.1454L100.681 77.975L130.255 85.9182Z" fill="#1E1E1F"/>
</g>
<defs>
<filter id="filter0_f_21_7" x="0.407349" y="0.782837" width="209" height="182.832" filterUnits="userSpaceOnUse" color-interpolation-filters="sRGB">
<feFlood flood-opacity="0" result="BackgroundImageFix"/>
<feBlend mode="normal" in="SourceGraphic" in2="BackgroundImageFix" result="shape"/>
<feGaussianBlur stdDeviation="5" result="effect1_foregroundBlur_21_7"/>
</filter>
</defs>
</svg>
