<svg width="105" height="155" viewBox="0 0 105 155" fill="none" xmlns="http://www.w3.org/2000/svg">
<g filter="url(#filter0_f_21_6)">
<path fill-rule="evenodd" clip-rule="evenodd" d="M76.0689 119.337C71.1994 125.999 63.8443 130.782 55.0492 132.159C51.7794 132.67 49.5399 135.736 50.0512 139.008C50.5621 142.278 53.6306 144.517 56.9005 144.006C80.9996 140.235 97.4744 117.653 93.714 93.5568C89.9438 69.46 67.3654 52.9821 43.2652 56.7456C39.9953 57.2565 37.7562 60.325 38.2671 63.5949C38.6512 66.0525 40.4799 67.9279 42.7531 68.491C41.9222 70.0583 40.9804 71.5647 39.9348 72.9976C34.3574 80.6437 25.8732 86.1542 15.784 87.7307L16.1543 90.1002C29.3299 88.0414 39.9501 79.6712 45.4164 68.5476C54.1068 67.2734 62.4513 69.585 69.0452 74.3884C75.7074 79.2603 80.4876 86.6133 81.8644 95.4084C83.236 104.202 80.9272 112.665 76.0689 119.337ZM4.37021 14.6872L3.99996 12.3177C25.4796 8.96371 45.6087 23.6543 48.9647 45.1311C49.5508 48.882 49.5865 52.5902 49.1318 56.1736C48.3245 56.1954 47.5107 56.2376 46.6954 56.3019C47.1828 52.8032 47.1691 49.1741 46.5952 45.5014C45.019 35.4146 39.5086 26.9304 31.8644 21.3502C24.2206 15.7724 14.4598 13.113 4.37021 14.6872Z" fill="#1E1E1F"/>
</g>
<defs>
<filter id="filter0_f_21_6" x="-6.00006" y="1.8407" width="110.249" height="152.238" filterUnits="userSpaceOnUse" color-interpolation-filters="sRGB">
<feFlood flood-opacity="0" result="BackgroundImageFix"/>
<feBlend mode="normal" in="SourceGraphic" in2="BackgroundImageFix" result="shape"/>
<feGaussianBlur stdDeviation="5" result="effect1_foregroundBlur_21_6"/>
</filter>
</defs>
</svg>
