<svg width="114" height="109" viewBox="0 0 114 109" fill="none" xmlns="http://www.w3.org/2000/svg">
<g opacity="0.03">
<path d="M29.609 32.9716C29.091 32.5085 28.6986 32.3192 28.2426 32.1914C27.843 32.0848 27.3671 32.0432 26.7516 32.0922C25.6814 32.17 24.2284 32.5738 22.5709 33.1455C20.0698 33.981 17.1429 35.1959 13.7355 35.5325C12.0344 35.6928 10.1878 35.601 8.32954 35.0357C6.47056 34.4774 4.64321 33.4397 2.99445 31.9298C1.56534 30.6259 1.46384 28.4115 2.76768 26.9824C4.07152 25.5533 6.28597 25.4518 7.71508 26.7556C8.55932 27.522 9.30882 27.9537 10.0381 28.2247C10.6756 28.4593 11.3114 28.5729 12.0185 28.596C13.2469 28.6359 14.7025 28.356 16.3191 27.8644C18.7551 27.1459 21.436 25.9492 24.4664 25.3482C25.9851 25.0595 27.64 24.9311 29.3779 25.2689C31.1123 25.5979 32.8718 26.4523 34.3296 27.7975C35.7577 29.1004 35.8593 31.3168 34.5564 32.7449C33.2525 34.174 31.037 34.2745 29.609 32.9716Z" fill="white"/>
<path d="M59.6438 60.3776C59.1268 59.9155 58.7334 59.7253 58.2774 59.5974C57.8789 59.4917 57.402 59.4492 56.7865 59.4982C55.7162 59.576 54.2652 59.9796 52.6067 60.5504C50.1067 61.3869 47.1806 62.6008 43.7732 62.9375C42.0721 63.0977 40.2267 63.0068 38.3674 62.4426C36.5094 61.8832 34.6819 60.8456 33.0332 59.3356C31.6041 58.0318 31.5026 55.8173 32.8064 54.3882C34.1103 52.9591 36.3247 52.8576 37.7538 54.1615C38.5981 54.9279 39.3477 55.3596 40.075 55.6306C40.7134 55.8641 41.3502 55.9787 42.0562 56.0009C43.2837 56.0418 44.7393 55.7619 46.3558 55.2704C48.7919 54.5519 51.4717 53.3542 54.5022 52.7552C56.0199 52.4655 57.6759 52.3381 59.4137 52.6759C61.1471 53.0039 62.9067 53.8583 64.3644 55.2035C65.7935 56.5073 65.8941 58.7228 64.5912 60.1509C63.2873 61.58 61.0729 61.6815 59.6438 60.3776Z" fill="white"/>
<path d="M34.2677 27.7448C35.5464 28.9038 36.4868 30.3173 37.0212 31.7891C37.4956 33.0752 37.6742 34.3739 37.6868 35.6008C37.7052 37.7547 37.269 39.725 36.8258 41.5867C36.1391 44.3657 35.4389 46.9373 35.4537 48.9683C35.4537 49.9866 35.5994 50.8495 35.927 51.6585C36.2595 52.4662 36.776 53.2636 37.7417 54.1504C39.1708 55.4543 39.2723 57.6687 37.9685 59.0978C36.6647 60.5269 34.4502 60.6284 33.0211 59.3246C31.5798 58.0134 30.482 56.5396 29.7446 54.9889C29.0964 53.6334 28.7269 52.2344 28.5628 50.8825C28.2775 48.5079 28.5797 46.2958 28.9862 44.2831C29.6158 41.2756 30.4669 38.601 30.6377 36.6597C30.734 35.6895 30.6765 34.9525 30.5159 34.4135C30.3462 33.8699 30.1273 33.4635 29.5471 32.9189C28.118 31.6151 28.0165 29.4007 29.3203 27.9716C30.6232 26.5435 32.8386 26.441 34.2677 27.7448Z" fill="white"/>
<path d="M64.3798 55.2173C65.6585 56.3763 66.5979 57.7909 67.1313 59.2617C67.6047 60.5469 67.7832 61.8456 67.7969 63.0735C67.8142 65.2263 67.3781 67.1967 66.9359 69.0573C66.2482 71.8374 65.5489 74.4079 65.5637 76.4389C65.5638 77.4572 65.7084 78.3192 66.035 79.1272C66.3685 79.9359 66.8839 80.7323 67.8487 81.6182L67.8497 81.6192L65.496 84.199L67.4118 81.2803C67.6285 81.423 67.7773 81.5531 67.8497 81.6192L65.496 84.199L67.4118 81.2803C69.0281 82.3415 69.4786 84.5122 68.4183 86.1294C67.3561 87.7467 65.1844 88.1963 63.5681 87.1351C63.3514 86.9923 63.2025 86.8603 63.1291 86.7933L63.128 86.7924C61.6877 85.4821 60.5899 84.0084 59.8525 82.4576C59.2044 81.1021 58.8359 79.7041 58.6718 78.3522C58.3866 75.9796 58.6888 73.7674 59.0953 71.7548C59.7249 68.7473 60.576 66.0727 60.7478 64.1303C60.8432 63.1612 60.7855 62.4241 60.6259 61.8841C60.4553 61.3416 60.2374 60.9341 59.6571 60.3896C58.228 59.0857 58.1285 56.8712 59.4314 55.4431C60.7352 54.014 62.9507 53.9135 64.3798 55.2173Z" fill="white"/>
<path d="M68.6144 37.6155C67.1646 36.2928 65.5239 35.7175 63.8626 35.643C62.1932 35.5648 60.5015 35.9517 58.7953 36.4771C55.3884 37.5385 51.8745 39.1433 48.5408 39.1643C46.3173 39.1759 44.1827 38.5538 42.0163 36.5887L41.0722 37.6235C41.0753 37.6264 41.0795 37.6302 41.0836 37.6339C42.8791 39.272 44.7733 40.1242 46.6651 40.4262C48.562 40.7309 50.4384 40.4991 52.2564 40.0549C55.887 39.1577 59.355 37.437 62.3479 37.0995C64.3486 36.8789 66.0535 37.1905 67.6868 38.6654L68.6309 37.6306C68.6257 37.6259 68.6195 37.6202 68.6144 37.6155Z" fill="white"/>
<path d="M98.6493 65.0214C97.2006 63.6996 95.5589 63.1234 93.8986 63.0498C92.2282 62.9707 90.5375 63.3585 88.8303 63.883C85.4243 64.9434 81.9114 66.5471 78.5787 66.569C76.3552 66.5807 74.2206 65.9586 72.0553 63.9945L71.1111 65.0293C71.1153 65.0331 71.1194 65.0368 71.1235 65.0406C72.9179 66.6777 74.8122 67.5299 76.703 67.8309C78.599 68.1367 80.4763 67.9039 82.2943 67.4597C85.9229 66.5626 89.3919 64.8428 92.3838 64.5044C94.3836 64.2848 96.0885 64.5964 97.7218 66.0713L98.6659 65.0365C98.6607 65.0318 98.6545 65.0261 98.6493 65.0214Z" fill="white"/>
<path d="M68.5947 37.6012C68.5864 37.5937 68.5771 37.5852 68.5688 37.5776L67.6247 38.6125C68.8461 39.7345 69.3965 40.9477 69.5971 42.3386C69.7937 43.7277 69.6029 45.2981 69.2465 46.9773C68.548 50.3409 67.1859 54.091 67.4865 57.8372C67.6839 60.3269 68.6844 62.8154 71.0738 64.9954C71.0821 65.003 71.0904 65.0105 71.0986 65.0181L72.0428 63.9833C70.4231 62.5017 69.5693 60.9643 69.1526 59.3572C68.7398 57.75 68.7791 56.0546 69.0392 54.3104C69.5524 50.8175 70.9791 47.2023 71.073 43.8198C71.1409 41.5797 70.5308 39.3677 68.5947 37.6012Z" fill="white"/>
<path d="M98.6811 65.0504L98.208 65.5669L97.7359 66.0843C98.9564 67.2053 99.5058 68.4196 99.7064 69.8105C99.9039 71.1986 99.7121 72.77 99.3558 74.4492C98.6571 77.8109 97.2961 81.5618 97.5948 85.3081C97.7931 87.7968 98.7926 90.2844 101.181 92.4635L101.207 92.4871L101.296 92.5573L102.065 91.3848L101.686 91.9624L102.151 91.4522L102.15 91.4513C100.531 89.9707 99.6775 88.4333 99.2618 86.8272C98.848 85.221 98.8884 83.5265 99.1495 81.7813C99.6607 78.2884 101.088 74.6742 101.182 71.2916C101.25 69.0516 100.641 66.8386 98.7059 65.073C98.6976 65.0655 98.6883 65.057 98.6811 65.0504Z" fill="white"/>
</g>
</svg>
