<svg width="34" height="33" viewBox="0 0 34 33" fill="none" xmlns="http://www.w3.org/2000/svg">
<path d="M10.6238 26.4821L13.127 22.4975C14.3165 23.2447 15.6021 23.5873 16.8951 23.5892C18.0734 23.5892 19.2478 23.2937 20.283 22.7328C21.322 22.17 22.2198 21.3588 22.903 20.2747V20.2709C23.6502 19.0814 23.9946 17.7959 23.9965 16.5028C23.9965 15.3265 23.701 14.1539 23.1402 13.1168C22.5793 12.0797 21.7662 11.1819 20.6839 10.4987C19.4982 9.75713 18.2164 9.41272 16.9214 9.41084C15.7432 9.41084 14.5669 9.70631 13.5298 10.2672C12.4909 10.83 11.5912 11.6431 10.908 12.7253L10.9061 12.7291C10.1626 13.913 9.82006 15.1966 9.81817 16.4896C9.81629 17.6679 10.1136 18.8424 10.6745 19.8813C11.2373 20.9203 12.0504 21.8199 13.1308 22.5013L13.127 22.4975L10.6238 26.4821L8.11671 30.4647C5.6379 28.9063 3.69547 26.7682 2.39301 24.3514C1.08679 21.931 0.407345 19.2301 0.407345 16.4896C0.40358 13.4895 1.23172 10.4291 2.94449 7.715L2.94265 7.71687C4.50108 5.23617 6.63921 3.29003 9.05779 1.98757C11.4783 0.681347 14.181 3.20821e-06 16.9214 3.20821e-06C19.9197 -0.00187896 22.9801 0.824379 25.6923 2.53339C28.173 4.08994 30.1173 6.22619 31.4198 8.64477C32.726 11.0634 33.4073 13.7624 33.4073 16.5028C33.4092 19.5049 32.5811 22.5672 30.8702 25.2831V25.2812C29.3136 27.7619 27.1755 29.7081 24.7588 31.0124C22.3383 32.3187 19.6375 33 16.8951 33C13.8968 33.0019 10.8364 32.1756 8.12045 30.4666L8.11671 30.4647L10.6238 26.4821Z" fill="#1E1E1F"/>
</svg>
