<svg width="104" height="101" viewBox="0 0 104 101" fill="none" xmlns="http://www.w3.org/2000/svg">
<path fill-rule="evenodd" clip-rule="evenodd" d="M94.3223 46.8984L63.7441 25.9946L55.6517 37.8323L63.4784 43.1828L63.0863 43.7564L50.6983 61.8776L49.551 61.0933L61.5469 43.5458L54.8674 38.9795L42.8395 56.5739L73.4177 77.4777L94.3223 46.8984ZM77.1933 84.2674L102.019 47.9517C102.536 47.1957 102.735 46.2474 102.566 45.3492C102.397 44.4491 101.867 43.6389 101.112 43.1228L64.7974 18.2975C64.0425 17.7815 63.0951 17.5816 62.1961 17.7515C61.2968 17.9195 60.4854 18.4489 59.9685 19.205L35.1425 55.5206C34.6264 56.2755 34.4277 57.2238 34.5968 58.1239C34.7656 59.0221 35.295 59.8334 36.0499 60.3495L45.5976 66.8765L37.505 78.7142L2.33898 54.674L26.3808 19.5056L49.115 35.0471L49.8993 33.8999L26.0178 17.574L0.407417 55.037L37.868 80.6458L46.7448 67.6608L72.3644 85.1748C73.1193 85.6909 74.0676 85.8896 74.9669 85.7216C75.8659 85.5517 76.6773 85.0223 77.1933 84.2674Z" fill="#1E1E1F"/>
</svg>
