<svg width="157" height="44" fill="none" xmlns="http://www.w3.org/2000/svg"><path fill-rule="evenodd" clip-rule="evenodd" d="M57.17 11.765c0-4.777 2.808-7.878 7.836-7.878a10.18 10.18 0 0 1 4.557.88l-.67 1.75a11.025 11.025 0 0 0-3.845-.66c-3.07-.022-5.49 1.644-5.49 5.698 0 4.138 2.504 5.93 5.91 5.93a11.311 11.311 0 0 0 3.572-.534l.544 1.801c-1.434.544-2.96.8-4.494.755-5.217 0-7.92-3.09-7.92-7.742Zm13.776 1.047c0-2.399.461-6.17 1.823-7.438 1.194-1.11 4.38-1.864 8.088-2.545l.366 2.011c-3.3.555-6.222 1.069-6.935 1.76a5.633 5.633 0 0 0-1.047 2.996 8.535 8.535 0 0 1 4.033-1.047c2.839 0 4.64 1.393 4.64 4.944 0 4.18-2.45 6.045-5.72 6.045-3.247 0-5.248-2.011-5.248-6.726Zm8.695.765c0-1.854-.806-3.29-2.954-3.29a7.58 7.58 0 0 0-3.51 1.006c-.02.378-.041.943-.041 1.32 0 3.5 1.058 5.123 3.226 5.123 2.567 0 3.28-2.137 3.28-4.159Zm4.138.136c0-4.63 2.379-6.37 5.354-6.37 3.31 0 4.704 2.086 4.704 5.899v.786h-7.784c.02 3.09 1.802 3.708 3.876 3.708a10.884 10.884 0 0 0 3.258-.513l.388 1.739a11.84 11.84 0 0 1-3.992.639c-3.53 0-5.803-1.372-5.803-5.888Zm7.711-1.246c0-2.075-.754-3.426-2.493-3.426-1.561 0-2.724 1.131-2.881 3.426h5.374Zm4.725-4.757h2.357v.86a4.9 4.9 0 0 1 3.195-1.205c2.797 0 4.704 1.938 4.704 5.835 0 4.777-2.86 6.275-6.045 6.275a16.3 16.3 0 0 1-1.854-.063v4.317h-2.357V7.71Zm7.962 5.595c0-2.127-.755-4.034-3.038-4.034a4.904 4.904 0 0 0-2.567.88v7.418c.597.122 1.203.192 1.812.21 2.714 0 3.793-1.866 3.793-4.474Zm4.253-.493c0-2.399.461-6.17 1.823-7.438 1.194-1.11 4.379-1.864 8.087-2.545l.367 2.011c-3.3.555-6.223 1.069-6.935 1.76a5.637 5.637 0 0 0-1.048 2.996 8.538 8.538 0 0 1 4.034-1.047c2.839 0 4.641 1.393 4.641 4.944 0 4.18-2.452 6.045-5.72 6.045-3.269 0-5.249-2.011-5.249-6.726Zm8.695.765c0-1.854-.806-3.29-2.954-3.29a7.585 7.585 0 0 0-3.51 1.006c-.021.378-.041.943-.041 1.32 0 3.5 1.058 5.123 3.226 5.123 2.567 0 3.279-2.137 3.279-4.159Zm3.73 2.62c0-2.955 2.65-3.563 4.704-3.584l2.577-.042v-1.257c0-1.613-.817-2.043-2.556-2.043a9.915 9.915 0 0 0-3.311.566l-.482-1.697c1.32-.54 2.734-.81 4.159-.796 2.839 0 4.4.985 4.4 3.363v6.107a1.008 1.008 0 0 0 1.236.901l-.178 1.718a3.1 3.1 0 0 1-.45.042c-1.215 0-2.399-.366-2.619-1.414a6.07 6.07 0 0 1-3.835 1.477c-2.189 0-3.645-1.184-3.645-3.342Zm7.281.512v-2.702l-2.515.115c-1.623.042-2.556.723-2.556 1.927 0 1.174.87 1.582 2.022 1.582a5.988 5.988 0 0 0 3.049-.922Zm5.384-8.999h2.274v4.882h5.573V7.71h2.273v11.734h-2.273v-5.07h-5.573v5.07h-2.274V7.71Zm12.918 0h2.273v11.734h-2.273V7.71Zm5.72 9.618-3.363-3.981 4.714-5.637h2.556l-4.819 5.469 2.347 2.567a6.3 6.3 0 0 0 2.944 2.116l-.388 1.708a5.155 5.155 0 0 1-3.991-2.242Zm-105.255 3.73c-.17 12.702-10.516 22.91-23.22 22.91-12.704 0-23.05-10.208-23.22-22.91 0-.514.02-1.027.052-1.53l14.059 7.993 29.773-16.93a22.564 22.564 0 0 1 2.556 10.466Zm-32.33.638L1.49 14.258c-.263.827-.473 1.67-.629 2.525l13.714 7.794L43.069 8.381a22.148 22.148 0 0 0-1.519-2.022L14.574 21.696ZM39.79 4.473a24.732 24.732 0 0 0-2.043-1.728L14.574 15.924 3.51 9.628A22.45 22.45 0 0 0 2.38 11.87l12.194 6.935L39.79 4.473ZM14.574 13.18 35.4 1.341A22.51 22.51 0 0 0 32.687 0L14.574 10.288 6.507 5.71a24.402 24.402 0 0 0-1.624 1.959l9.69 5.51Z" fill="#299D37"/><path fill-rule="evenodd" clip-rule="evenodd" d="M57.244 32.906c0-4.777 2.944-7.784 7.815-7.784 5.123 0 7.501 3.352 7.501 7.826 0 4.703-2.766 7.836-7.857 7.836-4.955 0-7.46-3.175-7.46-7.878Zm12.948.02c0-3.373-1.686-5.929-5.27-5.929-3.74 0-5.331 2.556-5.331 5.888 0 3.237 1.529 6.013 5.185 6.013 3.887 0 5.416-2.598 5.416-5.971Zm4.725-3.897h2.18v4.966h5.384V29.03h2.284v11.733H82.48v-4.987h-5.385v4.987h-2.179V29.03Zm11.587 10.204a4.073 4.073 0 0 0 2.284-1.718c.65-1.205 1.068-4.442 1.194-8.486h7.595v11.734H95.42V30.79h-3.436c-.325 4.085-.734 6.579-1.52 8.014a5.14 5.14 0 0 1-3.278 2.325l-.681-1.896ZM99.746 37.6c0-2.965 2.661-3.562 4.724-3.583l2.588-.042v-1.267c0-1.614-.828-2.043-2.567-2.043a10.32 10.32 0 0 0-3.331.555l-.471-1.697a10.68 10.68 0 0 1 4.169-.796c2.85 0 4.411.995 4.411 3.373v6.129a1.01 1.01 0 0 0 1.236.9l-.178 1.719c-.149.024-.3.038-.451.042-1.215 0-2.409-.367-2.629-1.415a6.101 6.101 0 0 1-3.845 1.477c-2.2 0-3.656-1.173-3.656-3.352Zm7.312.524V35.41l-2.525.104c-1.634.053-2.566.734-2.566 1.938a1.73 1.73 0 0 0 2.022 1.718 6.187 6.187 0 0 0 3.069-1.047Zm5.615-9.093h2.148v7.176l-.063 1.571 1.027-1.592 5.06-7.156h2.284v11.734h-2.284v-7.134l.063-1.614-1.017 1.635-5.07 7.113h-2.148V29.03Zm1.635-4.097.974-1.068a3.288 3.288 0 0 0 2.567 1.288 3.325 3.325 0 0 0 2.587-1.288l.954 1.068a4.158 4.158 0 0 1-7.082 0Zm11.827 4.096h2.284v4.966h5.584V29.03h2.284v11.733h-2.284v-4.987h-5.584v4.987h-2.284V29.03Z" fill="#F59726"/></svg>