<svg width="75" height="75" fill="none" xmlns="http://www.w3.org/2000/svg"><g clip-path="url(#a)" fill="#fff"><path d="M8.637 27.473a1.095 1.095 0 0 0 1.552 0 1.098 1.098 0 0 0 0-1.553l-2.665-2.665 2.665-2.665a1.098 1.098 0 0 0-1.552-1.552l-3.441 3.441a1.098 1.098 0 0 0 0 1.552l3.44 3.442ZM19.53 23.255l-2.666 2.665a1.097 1.097 0 0 0 1.552 1.553l3.442-3.442a1.097 1.097 0 0 0 0-1.552l-3.442-3.442a1.097 1.097 0 1 0-1.551 1.553l2.664 2.665ZM11.89 27.718a1.1 1.1 0 0 0 1.423-.62l2.704-6.883a1.098 1.098 0 0 0-2.043-.803l-2.704 6.883a1.098 1.098 0 0 0 .62 1.423ZM6.593 34.234h7.395a1.098 1.098 0 0 0 0-2.196H6.593a1.097 1.097 0 1 0 0 2.196ZM31.019 32.038h-13a1.098 1.098 0 0 0 0 2.196h13a1.098 1.098 0 1 0 0-2.196ZM6.593 38.864h3.15a1.098 1.098 0 0 0 0-2.196h-3.15a1.097 1.097 0 1 0 0 2.196ZM27.003 36.668a1.097 1.097 0 1 0 0 2.196h1.918a1.098 1.098 0 1 0 0-2.196h-1.918ZM24.114 37.765c0-.605-.492-1.097-1.097-1.097h-9.422a1.097 1.097 0 1 0 0 2.196h9.422c.605 0 1.097-.492 1.097-1.099ZM31.304 37.765c0 .607.492 1.099 1.098 1.099h3.593a1.098 1.098 0 1 0 0-2.196h-3.593c-.606 0-1.098.492-1.098 1.097ZM25.327 24.136h3.79a1.098 1.098 0 1 0 0-2.196h-3.79a1.098 1.098 0 1 0 0 2.195ZM33.36 24.136h23.124a1.097 1.097 0 1 0 0-2.196H33.361a1.098 1.098 0 1 0 0 2.195ZM52.972 26.77h-9.367a1.098 1.098 0 0 0 0 2.195h9.367a1.098 1.098 0 0 0 0-2.196ZM40.093 26.77h-3.22a1.097 1.097 0 1 0 0 2.195h3.22a1.097 1.097 0 1 0 0-2.196ZM25.327 28.965h7.887a1.098 1.098 0 0 0 0-2.196h-7.887a1.098 1.098 0 1 0 0 2.196ZM23.03 41.259h-7.394a1.098 1.098 0 1 0 0 2.195h7.394a1.098 1.098 0 0 0 0-2.195ZM12.274 41.259H6.593a1.097 1.097 0 1 0 0 2.195h5.68a1.097 1.097 0 1 0 0-2.195ZM36.434 41.259h-9.66a1.097 1.097 0 1 0 0 2.195h9.66a1.098 1.098 0 0 0 0-2.195ZM49.497 35.62h-5.282a1.098 1.098 0 0 0 0 2.196h5.282a1.097 1.097 0 1 0 0-2.196ZM58.663 37.816h7.456a1.098 1.098 0 1 0 0-2.196h-7.456a1.097 1.097 0 1 0 0 2.196ZM54.934 35.62h-1.709a1.098 1.098 0 1 0 0 2.196h1.71a1.097 1.097 0 1 0 0-2.196ZM44.215 49.777h5.282a1.097 1.097 0 1 0 0-2.195h-5.282a1.098 1.098 0 0 0 0 2.195ZM58.663 49.777h7.456a1.097 1.097 0 1 0 0-2.195h-7.456a1.097 1.097 0 1 0 0 2.195ZM53.226 49.777h1.708a1.097 1.097 0 1 0 0-2.195h-1.708a1.097 1.097 0 1 0 0 2.195ZM49.497 59.544h-5.282a1.098 1.098 0 0 0 0 2.195h5.282a1.097 1.097 0 1 0 0-2.195ZM66.12 59.544h-7.457a1.097 1.097 0 1 0 0 2.195h7.456a1.098 1.098 0 1 0 0-2.195ZM54.934 59.544h-1.709a1.098 1.098 0 1 0 0 2.195h1.71a1.097 1.097 0 1 0 0-2.195Z"/><path d="M70.17.146H4.83A4.837 4.837 0 0 0 0 4.977v53.11a4.837 4.837 0 0 0 4.831 4.831h4.13a1.097 1.097 0 1 0 0-2.194h-4.13a2.638 2.638 0 0 1-2.635-2.636v-4.164h39.99v1.892h-.871a2.16 2.16 0 0 0-2.159 2.159v2.748h-23.52a1.098 1.098 0 0 0 0 2.196h10.553v3.936h-3.314a4.014 4.014 0 0 0-4.01 4.01v2.37c0 1.01.821 1.83 1.83 1.83h33.527c1.008 0 1.83-.82 1.83-1.83v-2.37c0-2.21-1.8-4.01-4.01-4.01h-3.315v-1.387H69.02a2.16 2.16 0 0 0 2.158-2.16v-.516a4.838 4.838 0 0 0 3.739-4.704L75 4.977a4.835 4.835 0 0 0-4.83-4.83ZM41.352 51.311v-5.262h27.631v5.262H41.352Zm3.028-7.457v-2.31h21.574v2.31H44.38Zm21.574 9.652v2.31H44.38v-2.31h21.574Zm-37.57 9.413h10.772v.39a2.16 2.16 0 0 0 2.159 2.159h5.217v1.387H28.384v-3.937Zm23.658 6.132c1 0 1.814.814 1.814 1.814v2.005H21.061v-2.005c0-1 .814-1.814 1.814-1.814h29.167Zm16.941-5.779H41.352v-5.26h27.631v5.26Zm3.739-5.184c0 1.063-.634 1.98-1.543 2.395v-2.509c0-1.19-.97-2.158-2.16-2.158h-.87v-1.892h4.573v4.164Zm0-6.359h-1.58c.023-.124.037-5.716.037-5.716 0-1.191-.97-2.16-2.16-2.16h-.87v-2.309h.87c1.19 0 2.16-.968 2.16-2.159v-5.334c0-1.19-.97-2.16-2.16-2.16h-6.2a1.097 1.097 0 1 0 0 2.196h6.164v5.262H41.352v-5.262H55.99a1.097 1.097 0 1 0 0-2.195H41.315c-1.19 0-2.159.968-2.159 2.159v5.334c0 1.19.968 2.16 2.159 2.16h.87v2.309h-.87c-1.19 0-2.159.968-2.159 2.159 0 0 .014 5.592.036 5.716H2.196V15.077h70.526V51.73Zm0-38.847H2.276V4.977a2.638 2.638 0 0 1 2.636-2.635h65.174a2.638 2.638 0 0 1 2.636 2.635v7.905Z"/><path d="M8.095 4.36a3.224 3.224 0 0 0-3.221 3.22 3.225 3.225 0 0 0 3.221 3.222 3.226 3.226 0 0 0 3.221-3.222 3.225 3.225 0 0 0-3.221-3.22Zm0 4.246c-.565 0-1.026-.46-1.026-1.026 0-.565.46-1.026 1.026-1.026a1.027 1.027 0 0 1 0 2.052ZM16.297 4.36a3.225 3.225 0 0 0-3.222 3.22 3.225 3.225 0 0 0 3.222 3.222 3.225 3.225 0 0 0 3.22-3.222 3.225 3.225 0 0 0-3.22-3.22Zm0 4.246a1.027 1.027 0 0 1 0-2.052 1.027 1.027 0 0 1 0 2.052ZM24.497 4.36a3.224 3.224 0 0 0-3.22 3.22 3.225 3.225 0 0 0 3.22 3.222A3.226 3.226 0 0 0 27.72 7.58a3.225 3.225 0 0 0-3.222-3.22Zm0 4.246c-.565 0-1.026-.46-1.026-1.026 0-.565.46-1.026 1.026-1.026a1.027 1.027 0 0 1 0 2.052Z"/></g><defs><clipPath id="a"><path fill="#fff" d="M0 0h75v75H0z"/></clipPath></defs></svg>