<svg width="75" height="75" fill="none" xmlns="http://www.w3.org/2000/svg"><g clip-path="url(#a)" fill="#fff"><path d="M8.023 4.218a3.228 3.228 0 0 0-3.225 3.225 3.228 3.228 0 0 0 3.225 3.224 3.228 3.228 0 0 0 3.224-3.224 3.228 3.228 0 0 0-3.224-3.225Zm0 4.251a1.028 1.028 0 0 1 0-2.053c.566 0 1.027.46 1.027 1.027 0 .566-.461 1.026-1.027 1.026ZM16.233 4.218a3.228 3.228 0 0 0-3.225 3.225 3.229 3.229 0 0 0 3.225 3.224 3.228 3.228 0 0 0 3.224-3.224 3.228 3.228 0 0 0-3.224-3.225Zm0 4.251a1.028 1.028 0 0 1 0-2.053c.566 0 1.027.46 1.027 1.027 0 .566-.461 1.026-1.027 1.026ZM24.443 4.218a3.228 3.228 0 0 0-3.225 3.225 3.228 3.228 0 0 0 3.225 3.224 3.228 3.228 0 0 0 3.224-3.224 3.228 3.228 0 0 0-3.224-3.225Zm0 4.251a1.028 1.028 0 0 1 0-2.053c.566 0 1.027.46 1.027 1.027 0 .566-.46 1.026-1.027 1.026Z"/><path d="M70.164 0H4.836A4.841 4.841 0 0 0 0 4.836v65.328A4.842 4.842 0 0 0 4.836 75h65.328A4.842 4.842 0 0 0 75 70.164V53.518a1.1 1.1 0 1 0-2.198 0v16.646a2.641 2.641 0 0 1-2.638 2.638H4.836a2.641 2.641 0 0 1-2.638-2.638V14.947h70.604v31.784a1.099 1.099 0 0 0 2.198 0V4.836A4.841 4.841 0 0 0 70.164 0Zm2.638 12.75H2.198V4.835a2.64 2.64 0 0 1 2.638-2.638h65.328a2.641 2.641 0 0 1 2.638 2.638v7.913Z"/><path d="M67.6 22.695a3.479 3.479 0 0 0-3.475-3.475H10.71a3.479 3.479 0 0 0-3.474 3.475v6.454a1.099 1.099 0 1 0 2.198 0v-6.454c0-.705.572-1.277 1.276-1.277h53.414c.704 0 1.276.572 1.276 1.277V42.81c0 .704-.572 1.277-1.276 1.277h-3.46L49.403 31.392a1.804 1.804 0 0 0-2.627-.078l-5.966 5.963-8.037-9.057a1.81 1.81 0 0 0-1.296-.607 1.822 1.822 0 0 0-1.33.528L14.191 44.087h-3.48a1.278 1.278 0 0 1-1.277-1.277v-6.727a1.1 1.1 0 1 0-2.198 0v6.727a3.478 3.478 0 0 0 3.474 3.474h53.414a3.478 3.478 0 0 0 3.474-3.474V22.695ZM17.3 44.087 31.405 29.99l10.693 12.05a1.098 1.098 0 1 0 1.644-1.458l-1.471-1.658 5.764-5.761 9.693 10.924H17.301ZM10.71 49.361a3.477 3.477 0 0 0-3.473 3.474v10.78a3.477 3.477 0 0 0 3.473 3.474h21.256a3.478 3.478 0 0 0 3.474-3.474v-10.78a3.478 3.478 0 0 0-3.474-3.474H10.71Zm22.532 3.474v10.78c0 .704-.573 1.276-1.276 1.276H10.71a1.277 1.277 0 0 1-1.275-1.276v-10.78c0-.704.572-1.276 1.275-1.276h21.256c.703 0 1.276.572 1.276 1.276ZM42.87 49.361a3.477 3.477 0 0 0-3.474 3.474v10.78a3.477 3.477 0 0 0 3.474 3.474h21.255a3.478 3.478 0 0 0 3.474-3.474v-10.78a3.478 3.478 0 0 0-3.474-3.474H42.87ZM65.4 52.835v10.78c0 .704-.572 1.276-1.276 1.276H42.87a1.277 1.277 0 0 1-1.276-1.276v-10.78c0-.704.572-1.276 1.276-1.276h21.255c.704 0 1.276.572 1.276 1.276Z"/><path d="M12.84 55.704h2.972a1.098 1.098 0 1 0 0-2.198H12.84a1.1 1.1 0 1 0 0 2.198ZM12.84 59.427h1.546a1.099 1.099 0 0 0 0-2.197H12.84a1.099 1.099 0 1 0 0 2.197ZM29.836 57.23h-4.102a1.099 1.099 0 1 0 0 2.197h4.102a1.098 1.098 0 1 0 0-2.197ZM19.58 55.704h9.963a1.099 1.099 0 1 0 0-2.198H19.58a1.099 1.099 0 0 0 0 2.198ZM29.543 60.746h-2.971a1.099 1.099 0 1 0 0 2.198h2.97a1.1 1.1 0 0 0 0-2.198ZM22.803 60.746h-9.962a1.099 1.099 0 1 0 0 2.198h9.963a1.099 1.099 0 0 0 0-2.198ZM17.792 59.427h4.28a1.099 1.099 0 0 0 0-2.197h-4.28a1.099 1.099 0 1 0 0 2.197ZM45 55.704h2.97a1.098 1.098 0 1 0 0-2.198H45a1.1 1.1 0 1 0 0 2.198ZM45 59.427h1.545a1.099 1.099 0 1 0 0-2.197H45a1.099 1.099 0 1 0 0 2.197ZM61.995 57.23h-4.102a1.099 1.099 0 1 0 0 2.197h4.102a1.099 1.099 0 1 0 0-2.197ZM51.74 55.704h9.962a1.099 1.099 0 1 0 0-2.198h-9.963a1.1 1.1 0 1 0 0 2.198ZM61.702 60.746h-2.971a1.099 1.099 0 0 0 0 2.198h2.971a1.099 1.099 0 0 0 0-2.198ZM54.962 60.746H45a1.099 1.099 0 1 0 0 2.198h9.962a1.1 1.1 0 0 0 0-2.198ZM49.951 59.427h4.28a1.099 1.099 0 1 0 0-2.197h-4.28a1.099 1.099 0 1 0 0 2.197ZM59.96 27.36a4.19 4.19 0 0 0-4.185-4.184 4.19 4.19 0 0 0-4.184 4.185 4.19 4.19 0 0 0 4.184 4.185 4.19 4.19 0 0 0 4.185-4.185Zm-6.172 0c0-1.095.891-1.986 1.987-1.986s1.987.89 1.987 1.987a1.99 1.99 0 0 1-1.987 1.987 1.989 1.989 0 0 1-1.987-1.987Z"/></g><defs><clipPath id="a"><path fill="#fff" d="M0 0h75v75H0z"/></clipPath></defs></svg>